<?xml version="1.0" encoding="UTF-8"?>
<!DOCTYPE svg PUBLIC "-//W3C//DTD SVG 1.1//EN" "http://www.w3.org/Graphics/SVG/1.1/DTD/svg11.dtd">
<svg xmlns="http://www.w3.org/2000/svg" version="1.1" width="472px" height="503px" style="shape-rendering:geometricPrecision; text-rendering:geometricPrecision; image-rendering:optimizeQuality; fill-rule:evenodd; clip-rule:evenodd" xmlns:xlink="http://www.w3.org/1999/xlink">
<g><path style="opacity:1" fill="#9ed644" d="M 257.5,185.5 C 254.151,189.676 251.151,194.176 248.5,199C 256.994,225.607 259.328,252.773 255.5,280.5C 245.207,278.402 234.874,278.068 224.5,279.5C 229.668,244.988 225.668,211.654 212.5,179.5C 198.199,147.677 177.866,120.177 151.5,97C 142.291,88.7891 132.791,80.9558 123,73.5C 120.058,67.4382 121.891,65.2715 128.5,67C 147.659,78.4963 165.993,91.163 183.5,105C 192.697,113.863 201.531,123.03 210,132.5C 219.179,145.538 228.346,158.538 237.5,171.5C 248.536,159.296 259.036,146.629 269,133.5C 280.229,121.602 292.063,110.435 304.5,100C 313.772,94.3923 322.772,88.3923 331.5,82C 334.702,80.5167 338.036,80.1834 341.5,81C 342.554,82.3876 342.72,83.8876 342,85.5C 306.535,112.826 278.368,146.16 257.5,185.5 Z"/></g>
<g><path style="opacity:1" fill="#6aa827" d="M 257.5,185.5 C 278.368,146.16 306.535,112.826 342,85.5C 342.72,83.8876 342.554,82.3876 341.5,81C 338.036,80.1834 334.702,80.5167 331.5,82C 322.772,88.3923 313.772,94.3923 304.5,100C 292.063,110.435 280.229,121.602 269,133.5C 259.036,146.629 248.536,159.296 237.5,171.5C 228.346,158.538 219.179,145.538 210,132.5C 201.531,123.03 192.697,113.863 183.5,105C 165.993,91.163 147.659,78.4963 128.5,67C 121.891,65.2715 120.058,67.4382 123,73.5C 132.791,80.9558 142.291,88.7891 151.5,97C 177.866,120.177 198.199,147.677 212.5,179.5C 154.296,179.988 109.463,155.988 78,107.5C 59.8994,75.0583 53.7328,40.5583 59.5,4C 103.011,2.62044 143.011,13.6204 179.5,37C 195.151,48.8137 208.151,62.9803 218.5,79.5C 215.031,86.272 211.697,93.1054 208.5,100C 213.767,103.567 218.6,107.734 223,112.5C 227.751,119.666 232.251,127 236.5,134.5C 244.024,111.446 255.191,90.4461 270,71.5C 290.189,49.9785 314.689,35.4785 343.5,28C 363.188,22.3063 383.188,19.473 403.5,19.5C 409.223,63.1631 398.723,102.496 372,137.5C 342.168,173.064 304.002,189.064 257.5,185.5 Z"/></g>
<g><path style="opacity:1" fill="#cf6d16" d="M 101.5,353.5 C 101.328,354.492 101.662,355.158 102.5,355.5C 118.642,382.798 141.309,402.965 170.5,416C 182.85,420.951 195.517,424.784 208.5,427.5C 218.878,365.78 255.211,333.447 317.5,330.5C 338.031,329.919 356.531,335.585 373,347.5C 395.987,302.867 397.32,257.533 377,211.5C 371.615,198.549 364.115,187.049 354.5,177C 363.586,170.585 372.086,163.418 380,155.5C 386.531,147.602 392.698,139.436 398.5,131C 405.46,128.209 411.626,129.376 417,134.5C 422.618,142.453 428.618,150.12 435,157.5C 439.073,162.859 440.406,168.859 439,175.5C 434.537,182.041 429.871,188.374 425,194.5C 421.425,212.147 427.592,224.98 443.5,233C 452.829,233.739 459.996,237.905 465,245.5C 466.111,254.776 466.611,264.11 466.5,273.5C 466.597,283.215 466.097,292.881 465,302.5C 462.886,306.948 459.719,310.448 455.5,313C 434.651,316.185 424.151,328.352 424,349.5C 426.74,356.91 431.074,363.243 437,368.5C 441.541,375.188 441.541,381.855 437,388.5C 429.278,398.556 421.945,408.889 415,419.5C 409.743,427.214 402.576,430.047 393.5,428C 377.457,418.932 362.624,420.765 349,433.5C 342.583,442.003 340.75,451.503 343.5,462C 343.521,471.975 338.855,478.641 329.5,482C 313.387,488.814 296.887,494.314 280,498.5C 276.103,497.969 272.603,496.469 269.5,494C 265.875,488.585 262.375,483.085 259,477.5C 250.258,468.811 239.758,465.644 227.5,468C 222.787,469.19 218.453,471.19 214.5,474C 209.587,480.492 204.92,487.158 200.5,494C 197.127,496.612 193.294,498.112 189,498.5C 171.028,493.731 153.528,487.564 136.5,480C 130.498,476.041 127.498,470.374 127.5,463C 131.901,444.025 124.901,431.025 106.5,424C 96.1783,421.043 86.5116,422.376 77.5,428C 69.266,430.032 62.4327,427.866 57,421.5C 49,409.5 41,397.5 33,385.5C 32.3333,381.167 32.3333,376.833 33,372.5C 35.5573,367.277 38.8906,362.61 43,358.5C 48.8753,344.906 47.042,332.406 37.5,321C 30.7441,315.725 23.0775,312.725 14.5,312C 9.75654,309.435 6.75654,305.602 5.5,300.5C 6.83333,282.833 6.83333,265.167 5.5,247.5C 6.45407,242.711 9.12074,239.211 13.5,237C 35.2189,233.947 46.3856,221.447 47,199.5C 46.2264,195.951 44.893,192.618 43,189.5C 40,185.833 37,182.167 34,178.5C 32.5236,173.924 32.1902,169.257 33,164.5C 39.6635,152.507 47.8301,141.674 57.5,132C 61.8935,129.626 66.5602,128.959 71.5,130C 83.6186,147.286 98.2853,162.119 115.5,174.5C 116.583,175.365 116.749,176.365 116,177.5C 86.3155,212.889 74.9821,253.555 82,299.5C 84.8586,318.916 91.3586,336.916 101.5,353.5 Z"/></g>
<g><path style="opacity:1" fill="#ce5628" d="M 5.5,247.5 C 6.83333,265.167 6.83333,282.833 5.5,300.5C 4.84061,283.086 4.84061,265.42 5.5,247.5 Z"/></g>
<g><path style="opacity:1" fill="#a95901" d="M 255.5,280.5 C 284.199,287.199 304.866,303.865 317.5,330.5C 255.211,333.447 218.878,365.78 208.5,427.5C 195.517,424.784 182.85,420.951 170.5,416C 141.309,402.965 118.642,382.798 102.5,355.5C 118.508,341.672 137.174,334.172 158.5,333C 170.057,306.201 190.057,289.201 218.5,282C 217.552,281.517 216.552,281.351 215.5,281.5C 218.219,280.087 221.219,279.42 224.5,279.5C 234.874,278.068 245.207,278.402 255.5,280.5 Z"/></g>
<g><path style="opacity:1" fill="#a7511e" d="M 215.5,281.5 C 216.552,281.351 217.552,281.517 218.5,282C 190.057,289.201 170.057,306.201 158.5,333C 137.174,334.172 118.508,341.672 102.5,355.5C 101.662,355.158 101.328,354.492 101.5,353.5C 117.966,339.773 136.966,332.44 158.5,331.5C 169.069,305.359 188.069,288.693 215.5,281.5 Z"/></g>
<g><path style="opacity:1" fill="#a95900" d="M 335.5,366.5 C 343.709,365.872 347.209,369.539 346,377.5C 343.774,381.861 340.274,383.361 335.5,382C 331.139,379.774 329.639,376.274 331,371.5C 332.025,369.313 333.525,367.646 335.5,366.5 Z"/></g>
<g><path style="opacity:1" fill="#a85900" d="M 289.5,384.5 C 303.026,384.183 308.193,390.516 305,403.5C 300.869,409.115 295.369,410.948 288.5,409C 281.862,404.983 279.696,399.15 282,391.5C 284.396,388.933 286.896,386.6 289.5,384.5 Z"/></g>
<g><path style="opacity:1" fill="#a95900" d="M 284.5,442.5 C 291.12,441.954 294.286,444.954 294,451.5C 290.007,459.153 285.34,459.487 280,452.5C 279.077,448.017 280.577,444.683 284.5,442.5 Z"/></g>
</svg>
