<?xml version="1.0" encoding="UTF-8"?>
<!DOCTYPE svg PUBLIC "-//W3C//DTD SVG 1.1//EN" "http://www.w3.org/Graphics/SVG/1.1/DTD/svg11.dtd">
<svg xmlns="http://www.w3.org/2000/svg" version="1.1" width="506px" height="600px" style="shape-rendering:geometricPrecision; text-rendering:geometricPrecision; image-rendering:optimizeQuality; fill-rule:evenodd; clip-rule:evenodd" xmlns:xlink="http://www.w3.org/1999/xlink">
<g><path style="opacity:0.986" fill="#040405" d="M 235.5,-0.5 C 245.167,-0.5 254.833,-0.5 264.5,-0.5C 312.015,9.85447 339.515,39.1878 347,87.5C 347.812,110.182 348.812,132.849 350,155.5C 354.243,178.65 362.91,199.983 376,219.5C 381.667,227.167 387.333,234.833 393,242.5C 419.399,267.944 437.066,298.61 446,334.5C 456.161,364.982 456.994,395.648 448.5,426.5C 446.833,426.5 445.167,426.5 443.5,426.5C 442.588,431.655 440.588,436.322 437.5,440.5C 435.194,443.473 432.527,446.14 429.5,448.5C 425.973,451.423 422.306,454.09 418.5,456.5C 405.867,462.846 393.2,463.013 380.5,457C 376.689,453.85 374.023,450.017 372.5,445.5C 371.656,441.901 371.323,438.234 371.5,434.5C 371.23,430.15 371.897,425.983 373.5,422C 371.323,420.798 368.989,420.298 366.5,420.5C 371.388,392.521 371.555,364.521 367,336.5C 362.36,312.882 351.693,292.548 335,275.5C 334.51,274.207 334.343,272.873 334.5,271.5C 333.018,261.405 330.352,251.738 326.5,242.5C 321.652,229.804 315.986,217.47 309.5,205.5C 308.167,202.5 306.833,199.5 305.5,196.5C 304.164,193.162 302.831,189.829 301.5,186.5C 300.833,185.167 300.167,183.833 299.5,182.5C 301.311,176.478 302.644,170.312 303.5,164C 303.664,161.456 302.997,159.29 301.5,157.5C 300.032,153.77 297.365,151.437 293.5,150.5C 300.87,142.559 304.203,133.059 303.5,122C 303.458,118.749 303.125,115.583 302.5,112.5C 300.604,99.989 293.937,91.3223 282.5,86.5C 271.475,82.8869 261.975,85.5536 254,94.5C 251.381,97.406 249.547,100.739 248.5,104.5C 246.736,109.639 246.069,114.972 246.5,120.5C 243.89,118.363 240.89,117.03 237.5,116.5C 236.5,116.667 235.5,116.833 234.5,117C 235.337,118.011 235.67,119.178 235.5,120.5C 238.226,120.264 240.559,121.097 242.5,123C 243.987,125.485 245.821,127.652 248,129.5C 248.692,130.437 248.525,131.103 247.5,131.5C 243.548,130.728 239.548,130.395 235.5,130.5C 233.5,130.5 231.5,130.5 229.5,130.5C 225.397,131.09 221.397,132.09 217.5,133.5C 218.723,130.726 220.223,128.059 222,125.5C 222.689,116.924 220.856,108.924 216.5,101.5C 211.123,91.9765 203.123,88.1432 192.5,90C 184.239,94.6797 180.239,101.846 180.5,111.5C 180.349,121.991 181.516,132.325 184,142.5C 185.294,146.762 187.794,150.095 191.5,152.5C 190.5,153.833 189.5,155.167 188.5,156.5C 182.136,161.573 179.47,168.24 180.5,176.5C 183.5,179.167 186.5,181.833 189.5,184.5C 188.586,187.728 188.253,191.061 188.5,194.5C 188.497,199.527 188.164,204.527 187.5,209.5C 186.359,214.42 184.526,219.086 182,223.5C 176.42,230.992 171.087,238.659 166,246.5C 163.265,251.299 161.098,256.299 159.5,261.5C 158.224,263.562 157.39,265.896 157,268.5C 156.667,274.833 156.333,281.167 156,287.5C 151.977,292.888 148.477,298.554 145.5,304.5C 125.908,337.778 116.574,373.778 117.5,412.5C 111.332,406.502 107.499,399.168 106,390.5C 102.965,373.444 104.298,356.777 110,340.5C 116.729,322.532 125.896,306.032 137.5,291C 136.833,290.333 136.167,290.333 135.5,291C 132.035,295.467 128.202,299.633 124,303.5C 122.418,307.923 120.251,311.923 117.5,315.5C 115.496,316.673 113.996,318.34 113,320.5C 110.336,326.992 108.169,333.659 106.5,340.5C 105.883,340.611 105.383,340.944 105,341.5C 100.996,354.486 99.3291,367.82 100,381.5C 97.916,384.441 95.7493,387.275 93.5,390C 93.536,393.425 95.2027,395.425 98.5,396C 101.399,398.729 104.066,401.562 106.5,404.5C 109.762,408.08 112.762,411.913 115.5,416C 117.436,416.813 119.436,417.313 121.5,417.5C 138.753,433.254 156.753,448.087 175.5,462C 184.038,468.593 189.371,477.093 191.5,487.5C 191.573,495.931 187.573,501.431 179.5,504C 174.448,504.726 169.448,504.559 164.5,503.5C 163.167,502.167 161.833,500.833 160.5,499.5C 152.921,486.071 145.088,472.738 137,459.5C 130.358,449.04 123.191,439.04 115.5,429.5C 112.205,421.906 106.872,416.239 99.5,412.5C 92.1907,407.268 84.8574,407.268 77.5,412.5C 75.8333,413.833 74.1667,415.167 72.5,416.5C 68.3606,407.24 67.5272,397.573 70,387.5C 78.6506,369.531 87.3173,351.531 96,333.5C 101.797,317.31 107.13,300.976 112,284.5C 115.497,277.502 119.497,270.835 124,264.5C 136.764,249.313 149.764,234.313 163,219.5C 168.514,212.125 171.347,203.792 171.5,194.5C 167.862,154.574 166.695,114.574 168,74.5C 172.888,33.4538 195.388,8.45383 235.5,-0.5 Z"/></g>
<g><path style="opacity:1" fill="#383839" d="M 282.5,26.5 C 285.85,26.335 289.183,26.5017 292.5,27C 297.628,29.7951 301.795,33.6285 305,38.5C 305.497,40.8098 305.663,43.1432 305.5,45.5C 299.295,45.5274 294.295,48.0274 290.5,53C 287.104,55.0358 283.938,54.8691 281,52.5C 280.333,44.8333 280.333,37.1667 281,29.5C 281.513,28.4734 282.013,27.4734 282.5,26.5 Z"/></g>
<g><path style="opacity:1" fill="#5e5e5e" d="M 285.5,28.5 C 287.199,28.3398 288.866,28.5065 290.5,29C 294.095,32.0498 297.595,35.2164 301,38.5C 301.781,39.9437 301.614,41.277 300.5,42.5C 296.791,43.1884 293.457,44.6884 290.5,47C 288.741,47.7975 287.074,47.6309 285.5,46.5C 283.17,40.3451 283.17,34.3451 285.5,28.5 Z"/></g>
<g><path style="opacity:1" fill="#414142" d="M 201.5,78.5 C 208.069,78.6203 213.402,81.6203 217.5,87.5C 216.635,88.5827 215.635,88.7494 214.5,88C 211.111,83.4303 206.777,80.2636 201.5,78.5 Z"/></g>
<g><path style="opacity:1" fill="#464647" d="M 286.5,75.5 C 293.233,77.1848 297.9,81.1848 300.5,87.5C 299.127,87.6567 297.793,87.49 296.5,87C 292.783,83.6153 288.783,80.6153 284.5,78C 285.381,77.2917 286.047,76.4584 286.5,75.5 Z"/></g>
<g><path style="opacity:1" fill="#8b8b8b" d="M 282.5,86.5 C 280.983,86.5106 279.816,87.1772 279,88.5C 276.938,91.7234 275.104,95.0568 273.5,98.5C 264.5,98.0622 256.167,100.062 248.5,104.5C 249.547,100.739 251.381,97.406 254,94.5C 261.975,85.5536 271.475,82.8869 282.5,86.5 Z"/></g>
<g><path style="opacity:1" fill="#c6c6c5" d="M 282.5,86.5 C 293.937,91.3223 300.604,99.989 302.5,112.5C 294.581,104.405 284.914,99.7385 273.5,98.5C 275.104,95.0568 276.938,91.7234 279,88.5C 279.816,87.1772 280.983,86.5106 282.5,86.5 Z"/></g>
<g><path style="opacity:1" fill="#808080" d="M 216.5,101.5 C 214.435,101.483 212.435,101.15 210.5,100.5C 206.072,91.0694 199.239,89.0694 190,94.5C 188.711,97.3508 188.211,100.351 188.5,103.5C 186.167,106.5 183.5,109.167 180.5,111.5C 180.239,101.846 184.239,94.6797 192.5,90C 203.123,88.1432 211.123,91.9765 216.5,101.5 Z"/></g>
<g><path style="opacity:1" fill="#999999" d="M 210.5,100.5 C 202.879,99.8263 195.546,100.826 188.5,103.5C 188.211,100.351 188.711,97.3508 190,94.5C 199.239,89.0694 206.072,91.0694 210.5,100.5 Z"/></g>
<g><path style="opacity:1" fill="#f4f4f2" d="M 273.5,98.5 C 284.914,99.7385 294.581,104.405 302.5,112.5C 303.125,115.583 303.458,118.749 303.5,122C 304.203,133.059 300.87,142.559 293.5,150.5C 287.7,150.009 282.367,148.343 277.5,145.5C 284.771,144.062 289.271,139.729 291,132.5C 294.062,121.806 290.895,113.64 281.5,108C 267.657,104.815 260.323,110.481 259.5,125C 260.126,130.043 261.46,134.877 263.5,139.5C 260.167,137.833 256.833,136.167 253.5,134.5C 251.659,129.484 249.326,124.818 246.5,120.5C 246.069,114.972 246.736,109.639 248.5,104.5C 256.167,100.062 264.5,98.0622 273.5,98.5 Z"/></g>
<g><path style="opacity:1" fill="#f3f3f1" d="M 210.5,100.5 C 212.435,101.15 214.435,101.483 216.5,101.5C 220.856,108.924 222.689,116.924 222,125.5C 220.223,128.059 218.723,130.726 217.5,133.5C 215.95,134.441 214.284,135.107 212.5,135.5C 213.5,127.623 212,120.289 208,113.5C 203.752,108.404 198.585,107.237 192.5,110C 187.337,118.987 187.171,128.154 192,137.5C 194.416,140.423 197.25,142.757 200.5,144.5C 198.473,147.194 196.139,149.527 193.5,151.5C 192.833,151.833 192.167,152.167 191.5,152.5C 187.794,150.095 185.294,146.762 184,142.5C 181.516,132.325 180.349,121.991 180.5,111.5C 183.5,109.167 186.167,106.5 188.5,103.5C 195.546,100.826 202.879,99.8263 210.5,100.5 Z"/></g>
<g><path style="opacity:1" fill="#08080a" d="M 277.5,145.5 C 272.56,144.078 267.893,142.078 263.5,139.5C 261.46,134.877 260.126,130.043 259.5,125C 260.323,110.481 267.657,104.815 281.5,108C 290.895,113.64 294.062,121.806 291,132.5C 289.271,139.729 284.771,144.062 277.5,145.5 Z"/></g>
<g><path style="opacity:1" fill="#0c0c0d" d="M 212.5,135.5 C 212.5,135.833 212.5,136.167 212.5,136.5C 210.031,137.569 207.698,138.902 205.5,140.5C 203.833,141.833 202.167,143.167 200.5,144.5C 197.25,142.757 194.416,140.423 192,137.5C 187.171,128.154 187.337,118.987 192.5,110C 198.585,107.237 203.752,108.404 208,113.5C 212,120.289 213.5,127.623 212.5,135.5 Z"/></g>
<g><path style="opacity:1" fill="#666667" d="M 198.5,112.5 C 203.975,112.976 206.642,115.976 206.5,121.5C 201.709,120.376 199.042,117.376 198.5,112.5 Z"/></g>
<g><path style="opacity:1" fill="#6c6c6d" d="M 274.5,111.5 C 282.5,112.167 286.833,116.5 287.5,124.5C 286.448,124.649 285.448,124.483 284.5,124C 281.333,120.833 278.167,117.667 275,114.5C 274.517,113.552 274.351,112.552 274.5,111.5 Z"/></g>
<g><path style="opacity:1" fill="#3d3c3c" d="M 246.5,120.5 C 249.326,124.818 251.659,129.484 253.5,134.5C 251.426,133.486 249.426,132.486 247.5,131.5C 248.525,131.103 248.692,130.437 248,129.5C 245.821,127.652 243.987,125.485 242.5,123C 240.559,121.097 238.226,120.264 235.5,120.5C 235.67,119.178 235.337,118.011 234.5,117C 235.5,116.833 236.5,116.667 237.5,116.5C 240.89,117.03 243.89,118.363 246.5,120.5 Z"/></g>
<g><path style="opacity:1" fill="#ecca16" d="M 229.5,130.5 C 231.5,130.5 233.5,130.5 235.5,130.5C 235.263,141.198 235.596,151.865 236.5,162.5C 232.758,167.978 231.425,173.978 232.5,180.5C 233.145,181.812 234.145,182.812 235.5,183.5C 236.466,185.396 236.799,187.396 236.5,189.5C 233.904,190.265 231.237,190.599 228.5,190.5C 227.833,190.5 227.167,190.5 226.5,190.5C 226.73,170.895 226.73,151.228 226.5,131.5C 227.791,131.737 228.791,131.404 229.5,130.5 Z"/></g>
<g><path style="opacity:1" fill="#ebbf0c" d="M 229.5,130.5 C 228.791,131.404 227.791,131.737 226.5,131.5C 226.73,151.228 226.73,170.895 226.5,190.5C 222.5,190.5 218.5,190.5 214.5,190.5C 214.196,174.119 214.529,157.786 215.5,141.5C 215.5,140.833 215.833,140.5 216.5,140.5C 217.404,139.791 217.737,138.791 217.5,137.5C 215.784,137.371 214.117,137.038 212.5,136.5C 212.5,136.167 212.5,135.833 212.5,135.5C 214.284,135.107 215.95,134.441 217.5,133.5C 221.397,132.09 225.397,131.09 229.5,130.5 Z"/></g>
<g><path style="opacity:1" fill="#e8b40a" d="M 212.5,136.5 C 214.117,137.038 215.784,137.371 217.5,137.5C 217.737,138.791 217.404,139.791 216.5,140.5C 216.179,138.952 215.179,138.285 213.5,138.5C 213.285,140.179 213.952,141.179 215.5,141.5C 214.529,157.786 214.196,174.119 214.5,190.5C 218.5,190.5 222.5,190.5 226.5,190.5C 227.167,190.5 227.833,190.5 228.5,190.5C 223.35,191.651 218.016,191.817 212.5,191C 209.896,190.61 207.562,189.776 205.5,188.5C 205.5,172.5 205.5,156.5 205.5,140.5C 207.698,138.902 210.031,137.569 212.5,136.5 Z"/></g>
<g><path style="opacity:1" fill="#7a5b04" d="M 216.5,140.5 C 215.833,140.5 215.5,140.833 215.5,141.5C 213.952,141.179 213.285,140.179 213.5,138.5C 215.179,138.285 216.179,138.952 216.5,140.5 Z"/></g>
<g><path style="opacity:1" fill="#f4d523" d="M 235.5,130.5 C 239.548,130.395 243.548,130.728 247.5,131.5C 249.426,132.486 251.426,133.486 253.5,134.5C 256.833,136.167 260.167,137.833 263.5,139.5C 267.893,142.078 272.56,144.078 277.5,145.5C 282.367,148.343 287.7,150.009 293.5,150.5C 297.365,151.437 300.032,153.77 301.5,157.5C 298.645,159.25 295.311,160.083 291.5,160C 290.944,160.383 290.611,160.883 290.5,161.5C 287.774,161.264 285.441,162.097 283.5,164C 270.722,177.724 255.055,186.224 236.5,189.5C 236.799,187.396 236.466,185.396 235.5,183.5C 234.145,182.812 233.145,181.812 232.5,180.5C 235.249,180.726 237.916,180.393 240.5,179.5C 246.04,173.812 250.54,167.478 254,160.5C 254.236,158.236 254.736,156.069 255.5,154C 254.601,152.764 253.434,151.93 252,151.5C 248.999,152.918 245.832,153.751 242.5,154C 241.104,157.305 239.104,160.138 236.5,162.5C 235.596,151.865 235.263,141.198 235.5,130.5 Z"/></g>
<g><path style="opacity:1" fill="#947613" d="M 241.5,136.5 C 244.313,136.548 246.979,137.215 249.5,138.5C 250.429,139.689 250.762,141.022 250.5,142.5C 247.171,142.736 244.171,141.903 241.5,140C 240.316,138.855 240.316,137.688 241.5,136.5 Z"/></g>
<g><path style="opacity:1" fill="#dca409" d="M 205.5,140.5 C 205.5,156.5 205.5,172.5 205.5,188.5C 200.998,186.992 196.998,184.659 193.5,181.5C 193.5,171.5 193.5,161.5 193.5,151.5C 196.139,149.527 198.473,147.194 200.5,144.5C 202.167,143.167 203.833,141.833 205.5,140.5 Z"/></g>
<g><path style="opacity:1" fill="#f5d946" d="M 232.5,180.5 C 231.425,173.978 232.758,167.978 236.5,162.5C 239.104,160.138 241.104,157.305 242.5,154C 245.832,153.751 248.999,152.918 252,151.5C 253.434,151.93 254.601,152.764 255.5,154C 254.736,156.069 254.236,158.236 254,160.5C 250.54,167.478 246.04,173.812 240.5,179.5C 237.916,180.393 235.249,180.726 232.5,180.5 Z"/></g>
<g><path style="opacity:1" fill="#c89009" d="M 193.5,151.5 C 193.5,161.5 193.5,171.5 193.5,181.5C 191.999,180.248 190.332,179.248 188.5,178.5C 188.5,171.167 188.5,163.833 188.5,156.5C 189.5,155.167 190.5,153.833 191.5,152.5C 192.167,152.167 192.833,151.833 193.5,151.5 Z"/></g>
<g><path style="opacity:1" fill="#b07b09" d="M 188.5,156.5 C 188.5,163.833 188.5,171.167 188.5,178.5C 185.885,177.709 183.218,177.043 180.5,176.5C 179.47,168.24 182.136,161.573 188.5,156.5 Z"/></g>
<g><path style="opacity:1" fill="#d3990a" d="M 301.5,157.5 C 302.997,159.29 303.664,161.456 303.5,164C 302.644,170.312 301.311,176.478 299.5,182.5C 289.594,186.453 280.26,191.453 271.5,197.5C 262.832,199.885 253.999,201.552 245,202.5C 236.246,201.108 227.413,200.275 218.5,200C 216.091,198.799 214.091,197.133 212.5,195C 218.167,194.667 223.833,194.333 229.5,194C 232.851,193.943 235.851,193.109 238.5,191.5C 255.767,187.533 270.767,179.366 283.5,167C 285.65,165.589 287.984,164.755 290.5,164.5C 290.5,163.5 290.5,162.5 290.5,161.5C 290.611,160.883 290.944,160.383 291.5,160C 295.311,160.083 298.645,159.25 301.5,157.5 Z"/></g>
<g><path style="opacity:1" fill="#815c05" d="M 290.5,161.5 C 290.5,162.5 290.5,163.5 290.5,164.5C 287.984,164.755 285.65,165.589 283.5,167C 270.767,179.366 255.767,187.533 238.5,191.5C 228.908,193.089 219.242,193.755 209.5,193.5C 206.487,191.247 203.154,190.58 199.5,191.5C 200.246,192.736 200.579,194.07 200.5,195.5C 197.194,191.527 193.527,187.86 189.5,184.5C 186.5,181.833 183.5,179.167 180.5,176.5C 183.218,177.043 185.885,177.709 188.5,178.5C 190.332,179.248 191.999,180.248 193.5,181.5C 196.998,184.659 200.998,186.992 205.5,188.5C 207.562,189.776 209.896,190.61 212.5,191C 218.016,191.817 223.35,191.651 228.5,190.5C 231.237,190.599 233.904,190.265 236.5,189.5C 255.055,186.224 270.722,177.724 283.5,164C 285.441,162.097 287.774,161.264 290.5,161.5 Z"/></g>
<g><path style="opacity:1" fill="#565657" d="M 328.5,180.5 C 327.167,180.5 325.833,180.5 324.5,180.5C 324.678,183.216 325.178,185.883 326,188.5C 328.385,194.089 331.885,198.922 336.5,203C 338.833,203.667 341.167,203.667 343.5,203C 345.304,199.704 345.804,196.204 345,192.5C 343.198,191.211 342.031,189.544 341.5,187.5C 342.815,188.476 344.148,189.476 345.5,190.5C 346.66,194.459 346.827,198.459 346,202.5C 340.687,208.03 335.687,207.697 331,201.5C 329.223,195.722 326.556,190.389 323,185.5C 321.523,181.002 323.023,178.835 327.5,179C 328.056,179.383 328.389,179.883 328.5,180.5 Z"/></g>
<g><path style="opacity:1" fill="#7b7b7d" d="M 328.5,180.5 C 332.82,182.982 337.154,185.315 341.5,187.5C 342.031,189.544 343.198,191.211 345,192.5C 345.804,196.204 345.304,199.704 343.5,203C 341.167,203.667 338.833,203.667 336.5,203C 331.885,198.922 328.385,194.089 326,188.5C 325.178,185.883 324.678,183.216 324.5,180.5C 325.833,180.5 327.167,180.5 328.5,180.5 Z"/></g>
<g><path style="opacity:1" fill="#bdbdbb" d="M 301.5,186.5 C 302.831,189.829 304.164,193.162 305.5,196.5C 304.522,196.811 303.855,197.478 303.5,198.5C 298.121,199.156 292.787,199.989 287.5,201C 281.601,204.231 276.268,208.231 271.5,213C 269.833,213.333 268.167,213.667 266.5,214C 254.759,221.399 242.759,228.399 230.5,235C 224.732,236.225 219.399,235.225 214.5,232C 201.336,222.515 193.67,209.681 191.5,193.5C 192.815,194.476 194.148,195.476 195.5,196.5C 205.868,215.845 221.868,223.012 243.5,218C 258.186,214.163 270.853,206.997 281.5,196.5C 286.017,195.246 290.517,193.912 295,192.5C 297.359,190.594 299.526,188.594 301.5,186.5 Z"/></g>
<g><path style="opacity:1" fill="#abaaa8" d="M 299.5,182.5 C 300.167,183.833 300.833,185.167 301.5,186.5C 299.526,188.594 297.359,190.594 295,192.5C 290.517,193.912 286.017,195.246 281.5,196.5C 270.853,206.997 258.186,214.163 243.5,218C 221.868,223.012 205.868,215.845 195.5,196.5C 194.148,195.476 192.815,194.476 191.5,193.5C 191.688,191.897 191.188,190.563 190,189.5C 189.802,191.382 189.302,193.048 188.5,194.5C 188.253,191.061 188.586,187.728 189.5,184.5C 193.527,187.86 197.194,191.527 200.5,195.5C 208.785,210.475 221.451,216.642 238.5,214C 244.997,212.893 250.997,210.726 256.5,207.5C 262.049,204.944 267.049,201.61 271.5,197.5C 280.26,191.453 289.594,186.453 299.5,182.5 Z"/></g>
<g><path style="opacity:1" fill="#c08808" d="M 238.5,191.5 C 235.851,193.109 232.851,193.943 229.5,194C 223.833,194.333 218.167,194.667 212.5,195C 214.091,197.133 216.091,198.799 218.5,200C 227.413,200.275 236.246,201.108 245,202.5C 253.999,201.552 262.832,199.885 271.5,197.5C 267.049,201.61 262.049,204.944 256.5,207.5C 240.416,209.722 225.416,206.889 211.5,199C 209.845,197.556 209.178,195.722 209.5,193.5C 219.242,193.755 228.908,193.089 238.5,191.5 Z"/></g>
<g><path style="opacity:1" fill="#9c680a" d="M 209.5,193.5 C 209.178,195.722 209.845,197.556 211.5,199C 225.416,206.889 240.416,209.722 256.5,207.5C 250.997,210.726 244.997,212.893 238.5,214C 221.451,216.642 208.785,210.475 200.5,195.5C 200.579,194.07 200.246,192.736 199.5,191.5C 203.154,190.58 206.487,191.247 209.5,193.5 Z"/></g>
<g><path style="opacity:1" fill="#fcfcfa" d="M 309.5,205.5 C 315.986,217.47 321.652,229.804 326.5,242.5C 321.765,244.979 319.932,248.979 321,254.5C 322.084,253.335 322.917,252.002 323.5,250.5C 324.689,249.571 326.022,249.238 327.5,249.5C 327.662,251.527 327.495,253.527 327,255.5C 326.517,254.552 326.351,253.552 326.5,252.5C 325.325,252.281 324.325,252.614 323.5,253.5C 319.569,263.597 312.235,269.43 301.5,271C 288.486,271.823 275.486,272.823 262.5,274C 261.376,274.249 260.376,274.749 259.5,275.5C 260.605,276.892 261.939,278.059 263.5,279C 278.346,281.224 293.013,284.39 307.5,288.5C 318.678,290.751 328.011,296.085 335.5,304.5C 339.296,309.89 344.296,313.556 350.5,315.5C 350.664,312.813 350.497,310.146 350,307.5C 346.445,297.381 341.112,288.381 334,280.5C 332.723,276.903 332.39,273.236 333,269.5C 333.278,270.416 333.778,271.082 334.5,271.5C 334.343,272.873 334.51,274.207 335,275.5C 351.693,292.548 362.36,312.882 367,336.5C 371.555,364.521 371.388,392.521 366.5,420.5C 360.037,419.23 353.704,419.23 347.5,420.5C 345.596,420.738 344.262,421.738 343.5,423.5C 342.442,424.6 341.608,425.934 341,427.5C 340.501,432.823 340.334,438.156 340.5,443.5C 330.23,442.213 323.063,446.213 319,455.5C 318.907,471.229 319.74,486.896 321.5,502.5C 281.081,543.04 234.748,551.373 182.5,527.5C 179.305,522.431 175.638,517.765 171.5,513.5C 170.974,511.77 169.974,510.436 168.5,509.5C 167.167,507.5 165.833,505.5 164.5,503.5C 169.448,504.559 174.448,504.726 179.5,504C 187.573,501.431 191.573,495.931 191.5,487.5C 189.371,477.093 184.038,468.593 175.5,462C 156.753,448.087 138.753,433.254 121.5,417.5C 120.167,415.833 118.833,414.167 117.5,412.5C 116.574,373.778 125.908,337.778 145.5,304.5C 154.314,295.392 164.647,288.559 176.5,284C 178.061,283.059 179.395,281.892 180.5,280.5C 175.014,279.192 169.68,277.359 164.5,275C 160.452,271.4 158.785,266.9 159.5,261.5C 161.098,256.299 163.265,251.299 166,246.5C 171.087,238.659 176.42,230.992 182,223.5C 184.526,219.086 186.359,214.42 187.5,209.5C 188.434,208.432 188.768,207.099 188.5,205.5C 189.5,205.5 190.5,205.5 191.5,205.5C 193.267,213.281 195.933,220.614 199.5,227.5C 205.208,233.367 211.875,237.867 219.5,241C 226.341,241.875 233.007,241.208 239.5,239C 249.574,232.601 259.908,226.601 270.5,221C 276.5,216.333 282.5,211.667 288.5,207C 295.506,205.613 302.506,205.113 309.5,205.5 Z"/></g>
<g><path style="opacity:1" fill="#cdcdcc" d="M 191.5,193.5 C 193.67,209.681 201.336,222.515 214.5,232C 219.399,235.225 224.732,236.225 230.5,235C 242.759,228.399 254.759,221.399 266.5,214C 268.167,213.667 269.833,213.333 271.5,213C 276.268,208.231 281.601,204.231 287.5,201C 292.787,199.989 298.121,199.156 303.5,198.5C 303.855,197.478 304.522,196.811 305.5,196.5C 306.833,199.5 308.167,202.5 309.5,205.5C 302.506,205.113 295.506,205.613 288.5,207C 282.5,211.667 276.5,216.333 270.5,221C 259.908,226.601 249.574,232.601 239.5,239C 233.007,241.208 226.341,241.875 219.5,241C 211.875,237.867 205.208,233.367 199.5,227.5C 195.933,220.614 193.267,213.281 191.5,205.5C 190.5,205.5 189.5,205.5 188.5,205.5C 188.768,207.099 188.434,208.432 187.5,209.5C 188.164,204.527 188.497,199.527 188.5,194.5C 189.302,193.048 189.802,191.382 190,189.5C 191.188,190.563 191.688,191.897 191.5,193.5 Z"/></g>
<g><path style="opacity:1" fill="#e9e9e7" d="M 326.5,242.5 C 330.352,251.738 333.018,261.405 334.5,271.5C 333.778,271.082 333.278,270.416 333,269.5C 332.39,273.236 332.723,276.903 334,280.5C 341.112,288.381 346.445,297.381 350,307.5C 350.497,310.146 350.664,312.813 350.5,315.5C 344.296,313.556 339.296,309.89 335.5,304.5C 338.402,305.536 340.902,307.203 343,309.5C 344.44,310.148 345.94,310.481 347.5,310.5C 346.096,300.421 341.596,292.088 334,285.5C 329.554,278.942 325.887,271.942 323,264.5C 319.105,267.805 314.605,269.972 309.5,271C 296.526,272.58 283.526,273.913 270.5,275C 269.376,275.249 268.376,275.749 267.5,276.5C 278.415,279.267 289.415,282.101 300.5,285C 303.174,285.67 305.507,286.837 307.5,288.5C 293.013,284.39 278.346,281.224 263.5,279C 261.939,278.059 260.605,276.892 259.5,275.5C 260.376,274.749 261.376,274.249 262.5,274C 275.486,272.823 288.486,271.823 301.5,271C 312.235,269.43 319.569,263.597 323.5,253.5C 324.325,252.614 325.325,252.281 326.5,252.5C 326.351,253.552 326.517,254.552 327,255.5C 327.495,253.527 327.662,251.527 327.5,249.5C 326.022,249.238 324.689,249.571 323.5,250.5C 322.917,252.002 322.084,253.335 321,254.5C 319.932,248.979 321.765,244.979 326.5,242.5 Z"/></g>
<g><path style="opacity:1" fill="#dbdbd9" d="M 335.5,304.5 C 328.011,296.085 318.678,290.751 307.5,288.5C 305.507,286.837 303.174,285.67 300.5,285C 289.415,282.101 278.415,279.267 267.5,276.5C 268.376,275.749 269.376,275.249 270.5,275C 283.526,273.913 296.526,272.58 309.5,271C 314.605,269.972 319.105,267.805 323,264.5C 325.887,271.942 329.554,278.942 334,285.5C 341.596,292.088 346.096,300.421 347.5,310.5C 345.94,310.481 344.44,310.148 343,309.5C 340.902,307.203 338.402,305.536 335.5,304.5 Z"/></g>
<g><path style="opacity:1" fill="#cdcdcc" d="M 302.5,274.5 C 319.704,275.428 331.704,283.762 338.5,299.5C 338.167,300.167 337.833,300.833 337.5,301.5C 330.811,297.584 324.311,293.584 318,289.5C 306.776,285.288 295.61,281.288 284.5,277.5C 285.333,277.167 286.167,276.833 287,276.5C 292.328,275.957 297.495,275.29 302.5,274.5 Z"/></g>
<g><path style="opacity:1" fill="#d8d8d6" d="M 159.5,261.5 C 158.785,266.9 160.452,271.4 164.5,275C 169.68,277.359 175.014,279.192 180.5,280.5C 179.395,281.892 178.061,283.059 176.5,284C 164.647,288.559 154.314,295.392 145.5,304.5C 148.477,298.554 151.977,292.888 156,287.5C 156.333,281.167 156.667,274.833 157,268.5C 157.39,265.896 158.224,263.562 159.5,261.5 Z"/></g>
<g><path style="opacity:1" fill="#48484a" d="M 403.5,324.5 C 400.782,318.752 397.282,313.419 393,308.5C 392.601,308.728 392.435,309.062 392.5,309.5C 388.398,304.895 384.064,300.395 379.5,296C 373.156,292.496 367.156,288.496 361.5,284C 369.221,286.364 376.555,289.698 383.5,294C 389.023,300.522 394.857,306.688 401,312.5C 401.557,316.594 402.39,320.594 403.5,324.5 Z"/></g>
<g><path style="opacity:1" fill="#212123" d="M 375.5,307.5 C 381.402,307.035 385.902,309.368 389,314.5C 393.102,325.395 389.269,330.728 377.5,330.5C 371.033,329.572 368.533,325.905 370,319.5C 371.043,315.085 372.876,311.085 375.5,307.5 Z"/></g>
<g><path style="opacity:1" fill="#3b3b3c" d="M 377.5,312.5 C 378.978,312.238 380.311,312.571 381.5,313.5C 384.887,316.691 386.22,320.691 385.5,325.5C 373.316,326.788 370.649,322.455 377.5,312.5 Z"/></g>
<g><path style="opacity:1" fill="#555556" d="M 117.5,412.5 C 118.833,414.167 120.167,415.833 121.5,417.5C 119.436,417.313 117.436,416.813 115.5,416C 112.762,411.913 109.762,408.08 106.5,404.5C 106.657,403.127 106.49,401.793 106,400.5C 103.325,396.995 100.491,393.661 97.5,390.5C 99.32,388.161 100.487,385.494 101,382.5C 101.333,373.5 101.667,364.5 102,355.5C 103.967,350.63 105.467,345.63 106.5,340.5C 108.94,336.307 111.44,331.973 114,327.5C 115.864,323.737 117.031,319.737 117.5,315.5C 120.251,311.923 122.418,307.923 124,303.5C 128.202,299.633 132.035,295.467 135.5,291C 136.167,290.333 136.833,290.333 137.5,291C 125.896,306.032 116.729,322.532 110,340.5C 104.298,356.777 102.965,373.444 106,390.5C 107.499,399.168 111.332,406.502 117.5,412.5 Z"/></g>
<g><path style="opacity:1" fill="#343435" d="M 117.5,315.5 C 117.031,319.737 115.864,323.737 114,327.5C 111.44,331.973 108.94,336.307 106.5,340.5C 108.169,333.659 110.336,326.992 113,320.5C 113.996,318.34 115.496,316.673 117.5,315.5 Z"/></g>
<g><path style="opacity:1" fill="#606061" d="M 403.5,324.5 C 407.255,339.25 408.422,354.25 407,369.5C 403.148,378.904 399.981,388.571 397.5,398.5C 396.596,399.209 396.263,400.209 396.5,401.5C 395.209,401.737 394.209,401.404 393.5,400.5C 399.694,383.722 403.36,366.389 404.5,348.5C 404.123,334.37 400.123,321.37 392.5,309.5C 392.435,309.062 392.601,308.728 393,308.5C 397.282,313.419 400.782,318.752 403.5,324.5 Z"/></g>
<g><path style="opacity:1" fill="#3f3f41" d="M 403.5,324.5 C 408.766,335.821 410.599,347.821 409,360.5C 408.104,374.226 404.27,386.893 397.5,398.5C 399.981,388.571 403.148,378.904 407,369.5C 408.422,354.25 407.255,339.25 403.5,324.5 Z"/></g>
<g><path style="opacity:1" fill="#efefed" d="M 208.5,328.5 C 210.61,329.453 211.777,331.119 212,333.5C 212.471,355.208 211.638,376.875 209.5,398.5C 210.46,411.159 210.626,423.825 210,436.5C 207.733,437.935 205.733,437.602 204,435.5C 201.084,427.091 199.918,418.424 200.5,409.5C 201.023,389.153 201.856,368.82 203,348.5C 203.392,341.34 205.225,334.673 208.5,328.5 Z"/></g>
<g><path style="opacity:1" fill="#353536" d="M 106.5,340.5 C 105.467,345.63 103.967,350.63 102,355.5C 101.667,364.5 101.333,373.5 101,382.5C 100.487,385.494 99.32,388.161 97.5,390.5C 100.491,393.661 103.325,396.995 106,400.5C 106.49,401.793 106.657,403.127 106.5,404.5C 104.066,401.562 101.399,398.729 98.5,396C 95.2027,395.425 93.536,393.425 93.5,390C 95.7493,387.275 97.916,384.441 100,381.5C 99.3291,367.82 100.996,354.486 105,341.5C 105.383,340.944 105.883,340.611 106.5,340.5 Z"/></g>
<g><path style="opacity:1" fill="#3c3c3d" d="M 397.5,398.5 C 397.5,399.833 397.5,401.167 397.5,402.5C 406.176,402.429 414.51,403.763 422.5,406.5C 418.921,406.766 418.587,408.099 421.5,410.5C 425.638,413.468 429.638,416.635 433.5,420C 436.553,421.072 438.553,420.072 439.5,417C 438.609,414.721 437.609,412.554 436.5,410.5C 444.128,415.463 444.461,420.963 437.5,427C 435.051,427.725 432.717,428.725 430.5,430C 425.193,431.328 424.36,430.162 428,426.5C 428.667,424.167 428.667,421.833 428,419.5C 417.307,407.784 404.14,403.784 388.5,407.5C 384.939,408.945 381.606,410.445 378.5,412C 382.859,407.174 387.859,403.34 393.5,400.5C 394.209,401.404 395.209,401.737 396.5,401.5C 396.263,400.209 396.596,399.209 397.5,398.5 Z"/></g>
<g><path style="opacity:1" fill="#e8af0a" d="M 99.5,412.5 C 106.872,416.239 112.205,421.906 115.5,429.5C 118.13,434.663 120.464,439.996 122.5,445.5C 125.83,453.494 129.163,461.494 132.5,469.5C 132.19,470.738 131.69,470.738 131,469.5C 123.237,456.978 116.237,443.978 110,430.5C 107,426.167 104,421.833 101,417.5C 93.3687,410.222 86.702,410.889 81,419.5C 79.1068,427.19 77.1068,434.857 75,442.5C 71.903,449.93 66.403,454.43 58.5,456C 48.7804,455.952 38.7804,455.952 28.5,456C 22.8487,459.132 20.1821,463.965 20.5,470.5C 22.4436,481.382 24.4436,492.215 26.5,503C 25.1634,511.171 22.6634,519.005 19,526.5C 18.1834,529.964 18.5167,533.298 20,536.5C 23.6554,539.682 27.6554,541.348 32,541.5C 52.5034,547.916 73.6701,553.082 95.5,557C 107.486,560.786 119.319,564.953 131,569.5C 145.658,571.415 156.825,565.582 164.5,552C 164.167,551.667 163.833,551.333 163.5,551C 164.191,549.933 164.691,548.766 165,547.5C 166.462,534.349 163.962,522.015 157.5,510.5C 158.794,511.29 159.961,512.29 161,513.5C 161.167,513.167 161.333,512.833 161.5,512.5C 160.215,509.979 159.548,507.313 159.5,504.5C 164.769,512.385 168.436,521.052 170.5,530.5C 170.631,531.239 170.464,531.906 170,532.5C 168.289,530.044 166.956,527.377 166,524.5C 165.802,528.127 166.802,531.46 169,534.5C 171,561.5 158.5,574.333 131.5,573C 127.791,572.367 124.291,571.2 121,569.5C 120.586,569.957 120.086,570.291 119.5,570.5C 117.263,569.731 115.263,568.564 113.5,567C 103.79,564.99 94.1234,562.657 84.5,560C 79.8333,559.667 75.1667,559.333 70.5,559C 63.0823,556.229 55.4156,554.563 47.5,554C 40.2063,552.262 33.2063,549.762 26.5,546.5C 22.8688,544.368 19.7022,541.701 17,538.5C 15.4796,534.625 15.1462,530.625 16,526.5C 19.3502,519.143 21.5168,511.476 22.5,503.5C 21.0117,492.393 19.0117,481.393 16.5,470.5C 16.7041,459.801 22.0374,453.635 32.5,452C 41.1566,452.249 49.8232,452.249 58.5,452C 63.355,450.495 67.1883,447.662 70,443.5C 73.086,436.077 75.4193,428.41 77,420.5C 79.3797,417.076 82.213,414.076 85.5,411.5C 86.6667,411.167 87.8333,410.833 89,410.5C 92.4895,411.276 95.9895,411.942 99.5,412.5 Z"/></g>
<g><path style="opacity:1" fill="#5d5d5d" d="M 422.5,406.5 C 427.549,406.595 432.215,407.928 436.5,410.5C 437.609,412.554 438.609,414.721 439.5,417C 438.553,420.072 436.553,421.072 433.5,420C 429.638,416.635 425.638,413.468 421.5,410.5C 418.587,408.099 418.921,406.766 422.5,406.5 Z"/></g>
<g><path style="opacity:1" fill="#f4bc0c" d="M 132.5,469.5 C 140.077,483.659 148.41,497.325 157.5,510.5C 163.962,522.015 166.462,534.349 165,547.5C 164.691,548.766 164.191,549.933 163.5,551C 163.833,551.333 164.167,551.667 164.5,552C 156.825,565.582 145.658,571.415 131,569.5C 119.319,564.953 107.486,560.786 95.5,557C 73.6701,553.082 52.5034,547.916 32,541.5C 27.6554,541.348 23.6554,539.682 20,536.5C 18.5167,533.298 18.1834,529.964 19,526.5C 22.6634,519.005 25.1634,511.171 26.5,503C 24.4436,492.215 22.4436,481.382 20.5,470.5C 20.1821,463.965 22.8487,459.132 28.5,456C 38.7804,455.952 48.7804,455.952 58.5,456C 66.403,454.43 71.903,449.93 75,442.5C 77.1068,434.857 79.1068,427.19 81,419.5C 86.702,410.889 93.3687,410.222 101,417.5C 104,421.833 107,426.167 110,430.5C 116.237,443.978 123.237,456.978 131,469.5C 131.69,470.738 132.19,470.738 132.5,469.5 Z"/></g>
<g><path style="opacity:1" fill="#e8b01c" d="M 351.5,425.5 C 352.822,425.33 353.989,425.663 355,426.5C 355.256,433.081 356.09,439.581 357.5,446C 355.635,455.276 355.635,464.609 357.5,474C 357.955,496.672 357.455,519.506 356,542.5C 358.174,549.673 363.007,553.506 370.5,554C 383.202,554.156 395.202,551.489 406.5,546C 414.307,540.925 421.974,535.591 429.5,530C 443.999,525.037 458.665,520.371 473.5,516C 480.515,512.985 485.515,507.985 488.5,501C 487.793,498.457 486.46,496.291 484.5,494.5C 475.263,490.966 468.096,484.966 463,476.5C 459.864,470.386 456.364,464.552 452.5,459C 452.833,458.667 453.167,458.333 453.5,458C 450.768,453.405 449.102,448.572 448.5,443.5C 447.862,441.54 447.862,439.707 448.5,438C 445.223,431.126 446.556,430.793 452.5,437C 453.448,437.483 454.448,437.649 455.5,437.5C 454.323,441.154 454.489,444.82 456,448.5C 459.373,455.193 462.04,461.859 464,468.5C 467.327,474.307 471.494,479.474 476.5,484C 484.008,488.014 490.008,493.514 494.5,500.5C 493.878,505.912 491.544,510.412 487.5,514C 483.5,516.667 479.5,519.333 475.5,522C 461.287,525.738 447.287,530.072 433.5,535C 423.453,541.074 413.453,547.074 403.5,553C 391.735,558.072 379.735,560.072 367.5,559C 358.586,556.996 353.419,551.496 352,542.5C 351.862,530.321 352.362,518.154 353.5,506C 352.828,479.163 352.161,452.329 351.5,425.5 Z"/></g>
<g><path style="opacity:1" fill="#eeb81e" d="M 366.5,420.5 C 368.989,420.298 371.323,420.798 373.5,422C 371.897,425.983 371.23,430.15 371.5,434.5C 368.759,436.3 367.259,438.966 367,442.5C 366.274,447.239 366.607,451.905 368,456.5C 370.403,467.832 376.569,476.332 386.5,482C 390.792,482.971 394.958,483.471 399,483.5C 402.559,481.978 406.393,480.145 410.5,478C 414.667,475.167 418.167,471.667 421,467.5C 421.516,464.966 422.683,462.8 424.5,461C 424.167,460.667 423.833,460.333 423.5,460C 424.227,458.601 424.727,457.101 425,455.5C 427.504,453.826 429.004,451.493 429.5,448.5C 432.527,446.14 435.194,443.473 437.5,440.5C 437.09,445.616 436.59,450.949 436,456.5C 434.945,460.721 433.445,464.221 431.5,467C 431.833,467.333 432.167,467.667 432.5,468C 428.081,473.136 423.247,478.636 418,484.5C 417.667,484.167 417.333,483.833 417,483.5C 406.912,492.893 395.079,495.393 381.5,491C 372.573,487.74 366.739,481.573 364,472.5C 362.16,473.833 361.66,473.666 362.5,472C 361.02,469.323 359.686,469.823 358.5,473.5C 359.167,475.5 359.833,477.5 360.5,479.5C 358.231,481.881 358.231,484.381 360.5,487C 360.06,489.162 359.727,491.329 359.5,493.5C 360.106,495.709 360.773,497.876 361.5,500C 360.232,513.834 359.732,528 360,542.5C 363.117,548.144 367.95,550.811 374.5,550.5C 382.753,549.75 390.753,547.916 398.5,545C 409.428,539.065 420.094,532.732 430.5,526C 444.263,520.831 457.929,516.498 471.5,513C 476.268,510.724 480.268,507.557 483.5,503.5C 482.811,501.556 482.311,499.556 482,497.5C 478.195,494.633 474.528,491.633 471,488.5C 470.667,488.833 470.333,489.167 470,489.5C 460.583,478.064 452.75,465.564 446.5,452C 448.538,449.711 448.538,447.211 446.5,444.5C 446.957,443.702 447.624,443.369 448.5,443.5C 449.102,448.572 450.768,453.405 453.5,458C 453.167,458.333 452.833,458.667 452.5,459C 456.364,464.552 459.864,470.386 463,476.5C 468.096,484.966 475.263,490.966 484.5,494.5C 486.46,496.291 487.793,498.457 488.5,501C 485.515,507.985 480.515,512.985 473.5,516C 458.665,520.371 443.999,525.037 429.5,530C 421.974,535.591 414.307,540.925 406.5,546C 395.202,551.489 383.202,554.156 370.5,554C 363.007,553.506 358.174,549.673 356,542.5C 357.455,519.506 357.955,496.672 357.5,474C 355.635,464.609 355.635,455.276 357.5,446C 356.09,439.581 355.256,433.081 355,426.5C 353.989,425.663 352.822,425.33 351.5,425.5C 350.048,424.698 348.382,424.198 346.5,424C 347.252,423.329 347.586,422.496 347.5,421.5C 347.5,421.167 347.5,420.833 347.5,420.5C 353.704,419.23 360.037,419.23 366.5,420.5 Z"/></g>
<g><path style="opacity:1" fill="#f4bf21" d="M 448.5,426.5 C 450.463,427.82 452.463,429.154 454.5,430.5C 454.674,432.861 455.007,435.194 455.5,437.5C 454.448,437.649 453.448,437.483 452.5,437C 446.556,430.793 445.223,431.126 448.5,438C 447.862,439.707 447.862,441.54 448.5,443.5C 447.624,443.369 446.957,443.702 446.5,444.5C 448.538,447.211 448.538,449.711 446.5,452C 452.75,465.564 460.583,478.064 470,489.5C 470.333,489.167 470.667,488.833 471,488.5C 474.528,491.633 478.195,494.633 482,497.5C 482.311,499.556 482.811,501.556 483.5,503.5C 480.268,507.557 476.268,510.724 471.5,513C 457.929,516.498 444.263,520.831 430.5,526C 420.094,532.732 409.428,539.065 398.5,545C 390.753,547.916 382.753,549.75 374.5,550.5C 367.95,550.811 363.117,548.144 360,542.5C 359.732,528 360.232,513.834 361.5,500C 360.773,497.876 360.106,495.709 359.5,493.5C 359.727,491.329 360.06,489.162 360.5,487C 358.231,484.381 358.231,481.881 360.5,479.5C 359.833,477.5 359.167,475.5 358.5,473.5C 359.686,469.823 361.02,469.323 362.5,472C 361.66,473.666 362.16,473.833 364,472.5C 366.739,481.573 372.573,487.74 381.5,491C 395.079,495.393 406.912,492.893 417,483.5C 417.333,483.833 417.667,484.167 418,484.5C 423.247,478.636 428.081,473.136 432.5,468C 432.167,467.667 431.833,467.333 431.5,467C 433.445,464.221 434.945,460.721 436,456.5C 436.59,450.949 437.09,445.616 437.5,440.5C 440.588,436.322 442.588,431.655 443.5,426.5C 445.167,426.5 446.833,426.5 448.5,426.5 Z"/></g>
<g><path style="opacity:1" fill="#e5e5e3" d="M 340.5,443.5 C 340.5,443.833 340.5,444.167 340.5,444.5C 340.5,446.167 340.5,447.833 340.5,449.5C 333.524,448.903 328.357,451.57 325,457.5C 325.534,470.814 326.034,484.148 326.5,497.5C 325.167,499.5 323.5,501.167 321.5,502.5C 319.74,486.896 318.907,471.229 319,455.5C 323.063,446.213 330.23,442.213 340.5,443.5 Z"/></g>
<g><path style="opacity:1" fill="#cbcac8" d="M 340.5,444.5 C 341.495,455.988 341.828,467.655 341.5,479.5C 341.371,481.216 341.038,482.883 340.5,484.5C 335.833,488.833 331.167,493.167 326.5,497.5C 326.034,484.148 325.534,470.814 325,457.5C 328.357,451.57 333.524,448.903 340.5,449.5C 340.5,447.833 340.5,446.167 340.5,444.5 Z"/></g>
<g><path style="opacity:0.988" fill="#030305" d="M 340.5,484.5 C 340.5,486.5 340.5,488.5 340.5,490.5C 338.666,502.339 337,514.339 335.5,526.5C 334.097,529.909 333.43,533.575 333.5,537.5C 331.806,545.939 331.139,554.605 331.5,563.5C 331.292,568.636 331.959,573.636 333.5,578.5C 297.531,568.421 260.864,563.921 223.5,565C 212.36,565.601 201.36,567.101 190.5,569.5C 190.674,567.139 191.007,564.806 191.5,562.5C 193.189,550.59 190.523,539.924 183.5,530.5C 183.443,529.391 183.11,528.391 182.5,527.5C 234.748,551.373 281.081,543.04 321.5,502.5C 323.5,501.167 325.167,499.5 326.5,497.5C 331.167,493.167 335.833,488.833 340.5,484.5 Z"/></g>
<g><path style="opacity:1" fill="#845907" d="M 340.5,490.5 C 340.66,505.758 339.66,520.924 337.5,536C 337.581,541.539 338.081,547.039 339,552.5C 341.827,557.156 343.827,562.156 345,567.5C 348.201,571.036 351.701,574.203 355.5,577C 363.549,579.009 371.716,580.509 380,581.5C 385.69,581.229 391.19,580.062 396.5,578C 405.526,573.492 414.192,568.492 422.5,563C 426.137,561.023 429.137,558.356 431.5,555C 436.26,552.604 440.927,550.104 445.5,547.5C 445.919,546.328 446.585,545.328 447.5,544.5C 459.795,540.677 472.129,537.01 484.5,533.5C 467.692,541.735 451.359,550.735 435.5,560.5C 434.448,560.351 433.448,560.517 432.5,561C 419.965,571.03 406.298,579.197 391.5,585.5C 375.125,588.906 360.458,585.406 347.5,575C 340.258,567.679 336.424,558.846 336,548.5C 335.5,541.174 335.334,533.841 335.5,526.5C 337,514.339 338.666,502.339 340.5,490.5 Z"/></g>
<g><path style="opacity:1" fill="#d99f02" d="M 99.5,412.5 C 95.9895,411.942 92.4895,411.276 89,410.5C 87.8333,410.833 86.6667,411.167 85.5,411.5C 82.213,414.076 79.3797,417.076 77,420.5C 75.4193,428.41 73.086,436.077 70,443.5C 67.1883,447.662 63.355,450.495 58.5,452C 49.8232,452.249 41.1566,452.249 32.5,452C 22.0374,453.635 16.7041,459.801 16.5,470.5C 19.0117,481.393 21.0117,492.393 22.5,503.5C 21.5168,511.476 19.3502,519.143 16,526.5C 15.1462,530.625 15.4796,534.625 17,538.5C 19.7022,541.701 22.8688,544.368 26.5,546.5C 33.2063,549.762 40.2063,552.262 47.5,554C 55.4156,554.563 63.0823,556.229 70.5,559C 75.1667,559.333 79.8333,559.667 84.5,560C 94.1234,562.657 103.79,564.99 113.5,567C 115.263,568.564 117.263,569.731 119.5,570.5C 120.086,570.291 120.586,569.957 121,569.5C 124.291,571.2 127.791,572.367 131.5,573C 158.5,574.333 171,561.5 169,534.5C 166.802,531.46 165.802,528.127 166,524.5C 166.956,527.377 168.289,530.044 170,532.5C 170.464,531.906 170.631,531.239 170.5,530.5C 177.362,546.873 174.029,561.04 160.5,573C 150.55,577.708 140.217,578.708 129.5,576C 114.923,571.584 100.256,567.584 85.5,564C 65.9203,559.567 46.2536,555.233 26.5,551C 17.9924,548.666 13.3257,543.166 12.5,534.5C 14.6074,524.19 16.6074,513.856 18.5,503.5C 16.5782,492.314 14.5782,481.148 12.5,470C 13.0599,455.94 20.3932,448.774 34.5,448.5C 41.9628,449.397 49.9628,449.564 58.5,449C 64.7208,447.077 68.5542,442.91 70,436.5C 71.8179,428.199 74.3179,420.199 77.5,412.5C 84.8574,407.268 92.1907,407.268 99.5,412.5 Z"/></g>
<g><path style="opacity:1" fill="#dca218" d="M 347.5,421.5 C 347.586,422.496 347.252,423.329 346.5,424C 348.382,424.198 350.048,424.698 351.5,425.5C 352.161,452.329 352.828,479.163 353.5,506C 352.362,518.154 351.862,530.321 352,542.5C 353.419,551.496 358.586,556.996 367.5,559C 379.735,560.072 391.735,558.072 403.5,553C 413.453,547.074 423.453,541.074 433.5,535C 447.287,530.072 461.287,525.738 475.5,522C 479.5,519.333 483.5,516.667 487.5,514C 491.544,510.412 493.878,505.912 494.5,500.5C 490.008,493.514 484.008,488.014 476.5,484C 471.494,479.474 467.327,474.307 464,468.5C 462.04,461.859 459.373,455.193 456,448.5C 454.489,444.82 454.323,441.154 455.5,437.5C 455.007,435.194 454.674,432.861 454.5,430.5C 457.081,433.32 458.914,436.654 460,440.5C 459.372,456.065 464.872,468.898 476.5,479C 482.71,484.049 489.043,488.883 495.5,493.5C 498.719,500.026 497.885,506.026 493,511.5C 490,513.526 487.5,516.026 485.5,519C 480.232,522.132 474.899,524.965 469.5,527.5C 466.482,527.335 463.482,527.502 460.5,528C 453.008,530.997 445.341,533.497 437.5,535.5C 437.5,536.5 437.5,537.5 437.5,538.5C 430.612,540.863 424.279,544.363 418.5,549C 412.929,551.119 407.596,553.785 402.5,557C 389.038,563.72 375.038,565.054 360.5,561C 357.651,557.984 354.651,555.15 351.5,552.5C 349.669,547.847 348.669,543.013 348.5,538C 350.326,526.617 350.993,515.283 350.5,504C 349.833,478.17 349.333,452.337 349,426.5C 348.617,425.944 348.117,425.611 347.5,425.5C 343.835,424.707 343.835,423.374 347.5,421.5 Z"/></g>
<g><path style="opacity:1" fill="#bc8411" d="M 372.5,445.5 C 374.023,450.017 376.689,453.85 380.5,457C 393.2,463.013 405.867,462.846 418.5,456.5C 418.063,458.074 417.063,459.241 415.5,460C 412.281,461.293 409.281,462.96 406.5,465C 398.673,467.067 390.673,467.4 382.5,466C 379.097,463.719 376.263,460.886 374,457.5C 372.844,453.582 372.344,449.582 372.5,445.5 Z"/></g>
<g><path style="opacity:1" fill="#d89f18" d="M 371.5,434.5 C 371.323,438.234 371.656,441.901 372.5,445.5C 372.344,449.582 372.844,453.582 374,457.5C 376.263,460.886 379.097,463.719 382.5,466C 390.673,467.4 398.673,467.067 406.5,465C 409.281,462.96 412.281,461.293 415.5,460C 417.063,459.241 418.063,458.074 418.5,456.5C 422.306,454.09 425.973,451.423 429.5,448.5C 429.004,451.493 427.504,453.826 425,455.5C 424.727,457.101 424.227,458.601 423.5,460C 423.833,460.333 424.167,460.667 424.5,461C 422.683,462.8 421.516,464.966 421,467.5C 418.167,471.667 414.667,475.167 410.5,478C 406.393,480.145 402.559,481.978 399,483.5C 394.958,483.471 390.792,482.971 386.5,482C 376.569,476.332 370.403,467.832 368,456.5C 366.607,451.905 366.274,447.239 367,442.5C 367.259,438.966 368.759,436.3 371.5,434.5 Z"/></g>
<g><path style="opacity:1" fill="#b88202" d="M 9.5,480.5 C 12.7867,487.886 14.7867,495.719 15.5,504C 13.8189,514.29 11.8189,524.457 9.5,534.5C 9.62595,541.251 12.2926,546.751 17.5,551C 27.2938,554.616 37.2938,557.616 47.5,560C 64.8307,563.333 82.1641,566.666 99.5,570C 102.383,570.683 105.05,571.85 107.5,573.5C 116.831,575.999 126.164,578.499 135.5,581C 152.662,583.846 165.829,578.013 175,563.5C 177.991,554.286 178.324,544.953 176,535.5C 171.133,523.36 165.967,511.36 160.5,499.5C 161.833,500.833 163.167,502.167 164.5,503.5C 165.833,505.5 167.167,507.5 168.5,509.5C 168.34,511.199 168.506,512.866 169,514.5C 171.572,520.643 174.405,526.643 177.5,532.5C 178.987,539.769 179.487,547.102 179,554.5C 175.723,573.784 164.39,583.784 145,584.5C 135.1,583.266 125.267,581.766 115.5,580C 110.499,577.221 105.166,575.221 99.5,574C 71.8054,569.662 44.4721,563.662 17.5,556C 11.6007,552.543 7.60071,547.543 5.5,541C 5.24837,536.062 5.91504,530.729 7.5,525C 7.43007,524.235 7.09674,523.735 6.5,523.5C 8.16228,519.676 9.32894,515.676 10,511.5C 10.6008,501.153 10.4341,490.819 9.5,480.5 Z"/></g>
<g><path style="opacity:1" fill="#d19513" d="M 347.5,425.5 C 348.117,425.611 348.617,425.944 349,426.5C 349.333,452.337 349.833,478.17 350.5,504C 350.993,515.283 350.326,526.617 348.5,538C 348.669,543.013 349.669,547.847 351.5,552.5C 354.651,555.15 357.651,557.984 360.5,561C 375.038,565.054 389.038,563.72 402.5,557C 407.596,553.785 412.929,551.119 418.5,549C 424.279,544.363 430.612,540.863 437.5,538.5C 437.5,537.5 437.5,536.5 437.5,535.5C 445.341,533.497 453.008,530.997 460.5,528C 463.482,527.502 466.482,527.335 469.5,527.5C 460.327,531.924 450.66,535.424 440.5,538C 428.929,545.519 417.263,552.853 405.5,560C 392.751,566.829 379.751,569.162 366.5,567C 363.382,565.941 360.382,564.608 357.5,563C 355.097,560.318 352.597,557.818 350,555.5C 348.847,552.289 348.18,548.956 348,545.5C 347.218,531.277 347.718,517.111 349.5,503C 347.773,477.198 347.107,451.365 347.5,425.5 Z"/></g>
<g><path style="opacity:1" fill="#c2880f" d="M 347.5,420.5 C 347.5,420.833 347.5,421.167 347.5,421.5C 343.835,423.374 343.835,424.707 347.5,425.5C 347.107,451.365 347.773,477.198 349.5,503C 347.718,517.111 347.218,531.277 348,545.5C 348.18,548.956 348.847,552.289 350,555.5C 352.597,557.818 355.097,560.318 357.5,563C 360.382,564.608 363.382,565.941 366.5,567C 379.751,569.162 392.751,566.829 405.5,560C 417.263,552.853 428.929,545.519 440.5,538C 450.66,535.424 460.327,531.924 469.5,527.5C 474.899,524.965 480.232,522.132 485.5,519C 487.5,516.026 490,513.526 493,511.5C 497.885,506.026 498.719,500.026 495.5,493.5C 498.06,495.273 500.393,497.273 502.5,499.5C 501.717,502.509 501.05,505.676 500.5,509C 493.885,518.935 484.885,525.935 473.5,530C 448.737,534.541 427.737,545.541 410.5,563C 404.226,566.481 397.893,569.814 391.5,573C 375.48,577.734 361.647,574.234 350,562.5C 348.148,559.289 346.481,555.956 345,552.5C 344.382,535.471 344.882,518.471 346.5,501.5C 345.25,475.507 344.25,449.507 343.5,423.5C 344.262,421.738 345.596,420.738 347.5,420.5 Z"/></g>
<g><path style="opacity:1" fill="#9b690b" d="M 341.5,479.5 C 342.332,504.997 342.832,530.663 343,556.5C 344.632,562.93 348.132,568.097 353.5,572C 366.25,578.881 379.583,580.215 393.5,576C 399.186,572.966 404.853,569.966 410.5,567C 416.914,561.265 423.914,556.265 431.5,552C 433.947,549.097 436.614,546.43 439.5,544C 449.103,540.912 458.436,537.246 467.5,533C 477.953,531.272 487.287,527.105 495.5,520.5C 497.04,516.787 499.207,513.453 502,510.5C 502.279,507.543 503.113,504.877 504.5,502.5C 504.5,503.167 504.833,503.5 505.5,503.5C 505.5,506.833 505.5,510.167 505.5,513.5C 501.138,522.86 494.138,529.527 484.5,533.5C 472.129,537.01 459.795,540.677 447.5,544.5C 446.585,545.328 445.919,546.328 445.5,547.5C 440.927,550.104 436.26,552.604 431.5,555C 429.137,558.356 426.137,561.023 422.5,563C 414.192,568.492 405.526,573.492 396.5,578C 391.19,580.062 385.69,581.229 380,581.5C 371.716,580.509 363.549,579.009 355.5,577C 351.701,574.203 348.201,571.036 345,567.5C 343.827,562.156 341.827,557.156 339,552.5C 338.081,547.039 337.581,541.539 337.5,536C 339.66,520.924 340.66,505.758 340.5,490.5C 340.5,488.5 340.5,486.5 340.5,484.5C 341.038,482.883 341.371,481.216 341.5,479.5 Z"/></g>
<g><path style="opacity:1" fill="#a37303" d="M 6.5,523.5 C 7.09674,523.735 7.43007,524.235 7.5,525C 5.91504,530.729 5.24837,536.062 5.5,541C 7.60071,547.543 11.6007,552.543 17.5,556C 44.4721,563.662 71.8054,569.662 99.5,574C 105.166,575.221 110.499,577.221 115.5,580C 125.267,581.766 135.1,583.266 145,584.5C 164.39,583.784 175.723,573.784 179,554.5C 179.487,547.102 178.987,539.769 177.5,532.5C 185.401,551.489 181.734,567.989 166.5,582C 153.578,586.825 140.245,587.825 126.5,585C 119.833,582.667 113.167,580.333 106.5,578C 81.3039,574.806 56.3039,570.639 31.5,565.5C 21.7167,563.557 12.3833,560.39 3.5,556C 2.30342,553.985 0.970083,552.151 -0.5,550.5C -0.5,546.167 -0.5,541.833 -0.5,537.5C 1.80067,532.899 4.134,528.232 6.5,523.5 Z"/></g>
<g><path style="opacity:1" fill="#c78e02" d="M 77.5,412.5 C 74.3179,420.199 71.8179,428.199 70,436.5C 68.5542,442.91 64.7208,447.077 58.5,449C 49.9628,449.564 41.9628,449.397 34.5,448.5C 20.3932,448.774 13.0599,455.94 12.5,470C 14.5782,481.148 16.5782,492.314 18.5,503.5C 16.6074,513.856 14.6074,524.19 12.5,534.5C 13.3257,543.166 17.9924,548.666 26.5,551C 46.2536,555.233 65.9203,559.567 85.5,564C 100.256,567.584 114.923,571.584 129.5,576C 140.217,578.708 150.55,577.708 160.5,573C 174.029,561.04 177.362,546.873 170.5,530.5C 168.436,521.052 164.769,512.385 159.5,504.5C 146.402,485.302 134.069,465.636 122.5,445.5C 120.464,439.996 118.13,434.663 115.5,429.5C 123.191,439.04 130.358,449.04 137,459.5C 145.088,472.738 152.921,486.071 160.5,499.5C 165.967,511.36 171.133,523.36 176,535.5C 178.324,544.953 177.991,554.286 175,563.5C 165.829,578.013 152.662,583.846 135.5,581C 126.164,578.499 116.831,575.999 107.5,573.5C 105.05,571.85 102.383,570.683 99.5,570C 82.1641,566.666 64.8307,563.333 47.5,560C 37.2938,557.616 27.2938,554.616 17.5,551C 12.2926,546.751 9.62595,541.251 9.5,534.5C 11.8189,524.457 13.8189,514.29 15.5,504C 14.7867,495.719 12.7867,487.886 9.5,480.5C 2.97273,451.191 14.6394,438.691 44.5,443C 51.9693,442.849 57.8026,439.682 62,433.5C 65.511,427.805 69.011,422.139 72.5,416.5C 74.1667,415.167 75.8333,413.833 77.5,412.5 Z"/></g>
<g><path style="opacity:1" fill="#e9c00c" d="M 122.5,445.5 C 134.069,465.636 146.402,485.302 159.5,504.5C 159.548,507.313 160.215,509.979 161.5,512.5C 161.333,512.833 161.167,513.167 161,513.5C 159.961,512.29 158.794,511.29 157.5,510.5C 148.41,497.325 140.077,483.659 132.5,469.5C 129.163,461.494 125.83,453.494 122.5,445.5 Z"/></g>
<g><path style="opacity:1" fill="#ae780d" d="M 343.5,423.5 C 344.25,449.507 345.25,475.507 346.5,501.5C 344.882,518.471 344.382,535.471 345,552.5C 346.481,555.956 348.148,559.289 350,562.5C 361.647,574.234 375.48,577.734 391.5,573C 397.893,569.814 404.226,566.481 410.5,563C 427.737,545.541 448.737,534.541 473.5,530C 484.885,525.935 493.885,518.935 500.5,509C 501.05,505.676 501.717,502.509 502.5,499.5C 503.401,500.29 504.068,501.29 504.5,502.5C 503.113,504.877 502.279,507.543 502,510.5C 499.207,513.453 497.04,516.787 495.5,520.5C 487.287,527.105 477.953,531.272 467.5,533C 458.436,537.246 449.103,540.912 439.5,544C 436.614,546.43 433.947,549.097 431.5,552C 423.914,556.265 416.914,561.265 410.5,567C 404.853,569.966 399.186,572.966 393.5,576C 379.583,580.215 366.25,578.881 353.5,572C 348.132,568.097 344.632,562.93 343,556.5C 342.832,530.663 342.332,504.997 341.5,479.5C 341.828,467.655 341.495,455.988 340.5,444.5C 340.5,444.167 340.5,443.833 340.5,443.5C 340.334,438.156 340.501,432.823 341,427.5C 341.608,425.934 342.442,424.6 343.5,423.5 Z"/></g>
<g><path style="opacity:0.996" fill="#7d5804" d="M 171.5,513.5 C 175.638,517.765 179.305,522.431 182.5,527.5C 183.11,528.391 183.443,529.391 183.5,530.5C 191.463,551.304 187.463,569.304 171.5,584.5C 162.74,590.878 152.907,593.545 142,592.5C 138.5,592.333 135,592.167 131.5,592C 122.515,588.254 113.182,585.754 103.5,584.5C 93.3972,581.809 83.3972,579.143 73.5,576.5C 81.9107,577.059 90.244,578.225 98.5,580C 111.167,583.333 123.833,586.667 136.5,590C 143.167,590.667 149.833,590.667 156.5,590C 159.993,589.058 163.326,587.725 166.5,586C 170.973,581.527 175.473,577.027 180,572.5C 184.303,562.316 185.636,551.65 184,540.5C 182.131,534.305 179.798,528.305 177,522.5C 174.126,520.108 172.293,517.108 171.5,513.5 Z"/></g>
<g><path style="opacity:1" fill="#4e3405" d="M 331.5,563.5 C 340.539,580.712 354.873,590.546 374.5,593C 382.362,593.289 390.029,593.455 397.5,593.5C 392.302,596.118 386.968,598.118 381.5,599.5C 376.167,599.5 370.833,599.5 365.5,599.5C 355.314,597.492 346.147,593.159 338,586.5C 335.843,584.183 334.343,581.516 333.5,578.5C 331.959,573.636 331.292,568.636 331.5,563.5 Z"/></g>
<g><path style="opacity:1" fill="#8e6403" d="M 168.5,509.5 C 169.974,510.436 170.974,511.77 171.5,513.5C 172.293,517.108 174.126,520.108 177,522.5C 179.798,528.305 182.131,534.305 184,540.5C 185.636,551.65 184.303,562.316 180,572.5C 175.473,577.027 170.973,581.527 166.5,586C 163.326,587.725 159.993,589.058 156.5,590C 149.833,590.667 143.167,590.667 136.5,590C 123.833,586.667 111.167,583.333 98.5,580C 90.244,578.225 81.9107,577.059 73.5,576.5C 58.9909,574.374 44.9909,570.707 31.5,565.5C 56.3039,570.639 81.3039,574.806 106.5,578C 113.167,580.333 119.833,582.667 126.5,585C 140.245,587.825 153.578,586.825 166.5,582C 181.734,567.989 185.401,551.489 177.5,532.5C 174.405,526.643 171.572,520.643 169,514.5C 168.506,512.866 168.34,511.199 168.5,509.5 Z"/></g>
<g><path style="opacity:1" fill="#6d4904" d="M 335.5,526.5 C 335.334,533.841 335.5,541.174 336,548.5C 336.424,558.846 340.258,567.679 347.5,575C 360.458,585.406 375.125,588.906 391.5,585.5C 406.298,579.197 419.965,571.03 432.5,561C 433.448,560.517 434.448,560.351 435.5,560.5C 426.506,568.494 417.506,576.494 408.5,584.5C 388.747,593.14 369.414,592.307 350.5,582C 335.187,570.956 329.521,556.123 333.5,537.5C 333.43,533.575 334.097,529.909 335.5,526.5 Z"/></g>
<g><path style="opacity:1" fill="#5c3e05" d="M 333.5,537.5 C 329.521,556.123 335.187,570.956 350.5,582C 369.414,592.307 388.747,593.14 408.5,584.5C 405.424,588.207 401.758,591.207 397.5,593.5C 390.029,593.455 382.362,593.289 374.5,593C 354.873,590.546 340.539,580.712 331.5,563.5C 331.139,554.605 331.806,545.939 333.5,537.5 Z"/></g>
<g><path style="opacity:1" fill="#684904" d="M 183.5,530.5 C 190.523,539.924 193.189,550.59 191.5,562.5C 188.459,568.043 185.292,573.71 182,579.5C 167.778,592.516 150.945,597.849 131.5,595.5C 122.091,591.812 112.758,588.146 103.5,584.5C 113.182,585.754 122.515,588.254 131.5,592C 135,592.167 138.5,592.333 142,592.5C 152.907,593.545 162.74,590.878 171.5,584.5C 187.463,569.304 191.463,551.304 183.5,530.5 Z"/></g>
<g><path style="opacity:1" fill="#543a04" d="M 191.5,562.5 C 191.007,564.806 190.674,567.139 190.5,569.5C 185.268,585.401 174.602,595.401 158.5,599.5C 153.167,599.5 147.833,599.5 142.5,599.5C 138.783,598.32 135.116,596.987 131.5,595.5C 150.945,597.849 167.778,592.516 182,579.5C 185.292,573.71 188.459,568.043 191.5,562.5 Z"/></g>
</svg>
